<svg xmlns="http://www.w3.org/2000/svg" viewBox="0 0 500 500">
  <path fill="#2a5a80" d="M250 3.2C115.16 3.2 2 113.96 2 251.2c0 137.25 113.17 245.6 248 245.6 134.84 0 248-108.35 248-245.6-2.4-137.24-110.76-248-248-248zm-134.84 248c0-77.04 62.6-139.65 139.66-139.65 77.04 0 139.65 62.6 139.65 139.65v16.86c-14.45-89.09-96.32-101.13-120.4-101.13-28.89 0-36.1 2.41-50.56 14.45v96.3s14.45-12.03 31.3-12.03c16.86 0 55.38 12.04 55.38 55.38s-28.89 62.6-62.6 62.6c-67.42 7.22-132.43-60.2-132.43-132.43z"/>
</svg>